<?xml version="1.0" encoding="UTF-8" standalone="no"?>
<!DOCTYPE svg PUBLIC "-//W3C//DTD SVG 1.1//EN" "http://www.w3.org/Graphics/SVG/1.1/DTD/svg11.dtd">
<svg width="100%" height="100%" viewBox="0 0 484 445" version="1.1" xmlns="http://www.w3.org/2000/svg" xmlns:xlink="http://www.w3.org/1999/xlink" xml:space="preserve" xmlns:serif="http://www.serif.com/" style="fill-rule:evenodd;clip-rule:evenodd;stroke-linecap:round;stroke-linejoin:round;stroke-miterlimit:1;">
    <g transform="matrix(1,0,0,1,310,1781)">
        <g id="logout-hower" transform="matrix(1,0,0,1,767,15.2553)">
            <g transform="matrix(0.816327,0,0,0.83875,-1460.96,-1041.87)">
                <path d="M855,-528.323L855,-408.489L512,-408.489L512,-652.317L512,-408.489L855,-408.489L855,-528.323Z" style="fill:none;stroke:rgb(240,69,69);stroke-width:79.77px;"/>
            </g>
            <g transform="matrix(0.816327,0,0,-0.83875,-1460.96,-2105.62)">
                <path d="M855,-528.323L855,-408.489L512,-408.489L512,-652.317L512,-408.489L855,-408.489L855,-528.323Z" style="fill:none;stroke:rgb(240,69,69);stroke-width:79.77px;"/>
            </g>
            <g transform="matrix(0.799845,0,0,0.984127,-184.543,-26.2381)">
                <path d="M-922,-1571.75L-553,-1571.75L-634.029,-1648.93L-553,-1571.75L-636.192,-1498.55" style="fill:none;stroke:rgb(240,69,69);stroke-width:73.62px;"/>
            </g>
        </g>
    </g>
</svg>
