<?xml version="1.0" encoding="UTF-8" standalone="no"?>
<!DOCTYPE svg PUBLIC "-//W3C//DTD SVG 1.1//EN" "http://www.w3.org/Graphics/SVG/1.1/DTD/svg11.dtd">
<svg width="100%" height="100%" viewBox="0 0 294 269" version="1.1" xmlns="http://www.w3.org/2000/svg" xmlns:xlink="http://www.w3.org/1999/xlink" xml:space="preserve" xmlns:serif="http://www.serif.com/" style="fill-rule:evenodd;clip-rule:evenodd;stroke-linejoin:round;stroke-miterlimit:2;">
    <g transform="matrix(1,0,0,1,-1010,625)">
        <g id="NoPic">
        </g>
        <g id="Usergroup">
        </g>
        <g id="Usergroup1" serif:id="Usergroup">
        </g>
        <g id="Message" transform="matrix(2.57495,0,0,2.57495,-2565.52,-2411.65)">
            <path d="M1518.51,683L1434,683C1419.65,683 1408,671.35 1408,657L1408,605C1408,590.65 1419.65,579 1434,579L1518.51,579C1532.86,579 1544.51,590.65 1544.51,605L1544.51,657C1544.51,663.66 1542,669.738 1537.88,674.34L1544.06,696.656L1521.51,682.829C1520.53,682.942 1519.53,683 1518.51,683ZM1476.26,620.828C1482.33,620.828 1487.26,625.757 1487.26,631.828C1487.26,637.899 1482.33,642.828 1476.26,642.828C1470.19,642.828 1465.26,637.899 1465.26,631.828C1465.26,625.757 1470.19,620.828 1476.26,620.828ZM1441.89,620.828C1447.96,620.828 1452.89,625.757 1452.89,631.828C1452.89,637.899 1447.96,642.828 1441.89,642.828C1435.82,642.828 1430.89,637.899 1430.89,631.828C1430.89,625.757 1435.82,620.828 1441.89,620.828ZM1510.62,620.828C1516.69,620.828 1521.62,625.757 1521.62,631.828C1521.62,637.899 1516.69,642.828 1510.62,642.828C1504.55,642.828 1499.62,637.899 1499.62,631.828C1499.62,625.757 1504.55,620.828 1510.62,620.828Z" style="fill:rgb(240,69,69);"/>
        </g>
        <g id="home">
        </g>
        <g id="NoPic1" serif:id="NoPic">
        </g>
        <g id="home1" serif:id="home">
        </g>
        <g id="Photo">
        </g>
        <g id="Usergroup2" serif:id="Usergroup">
        </g>
        <g id="camera" transform="matrix(1,0,0,1,-518.366,446)">
            <path d="M1732.31,-854.489L1618.69,-854.489C1598.24,-854.489 1581.63,-871.092 1581.63,-891.542L1581.63,-965.646C1581.63,-986.095 1598.24,-1002.7 1618.69,-1002.7L1618.72,-1002.7C1622.88,-1011.46 1631.82,-1017.52 1642.15,-1017.52L1708.85,-1017.52C1719.18,-1017.52 1728.12,-1011.46 1732.28,-1002.7L1732.31,-1002.7C1752.76,-1002.7 1769.37,-986.095 1769.37,-965.646L1769.37,-891.542C1769.37,-871.092 1752.76,-854.49 1732.31,-854.489ZM1675.5,-976.762C1698,-976.762 1716.26,-958.499 1716.26,-936.004C1716.26,-913.51 1698,-895.247 1675.5,-895.247C1653.01,-895.247 1634.74,-913.51 1634.74,-936.004C1634.74,-958.499 1653.01,-976.762 1675.5,-976.762Z" style="fill:rgb(48,56,65);"/>
        </g>
    </g>
</svg>
